<svg xmlns="http://www.w3.org/2000/svg" viewBox="0 0 120 100">
  <defs>
    <linearGradient id="grad" x1="0%" y1="0%" x2="100%" y2="100%">
      <stop offset="0%" style="stop-color:#667eea;stop-opacity:1" />
      <stop offset="100%" style="stop-color:#764ba2;stop-opacity:1" />
    </linearGradient>
  </defs>

  <!-- Handwritten cursive W with flowing strokes -->
  <path d="M 15 35 Q 12 30 18 28 Q 22 28 24 32 C 26 38 28 50 30 65 C 31 72 32 78 38 80 Q 42 81 45 77 C 47 74 49 68 52 58 C 54 50 56 42 58 38 C 60 34 62 32 65 35 C 67 37 69 42 71 50 C 73 58 75 68 77 76 Q 79 82 84 83 Q 88 84 92 80 C 95 77 97 70 99 60 C 101 50 103 40 105 33 Q 107 28 110 30 Q 113 32 111 37 C 109 43 107 52 105 62 C 103 72 101 82 97 88 Q 94 92 88 93 Q 80 94 76 88 C 73 84 71 78 69 70 C 67 62 65 52 63 45 C 61 48 59 54 57 62 C 55 70 53 78 50 84 Q 47 90 40 91 Q 33 92 29 86 C 26 82 24 75 23 66 C 22 57 20 45 18 37 Q 16 32 15 35 Z"
        fill="none"
        stroke="url(#grad)"
        stroke-width="9"
        stroke-linecap="round"
        stroke-linejoin="round"/>
</svg>
